<svg xmlns="http://www.w3.org/2000/svg" xmlns:xlink="http://www.w3.org/1999/xlink" width="500" zoomAndPan="magnify" viewBox="0 0 375 374.999991" height="500" preserveAspectRatio="xMidYMid meet" version="1.0"><defs><g/><clipPath id="64c5d15a3e"><path d="M 92.167969 221.066406 L 187.5 221.066406 L 187.5 226.597656 L 92.167969 226.597656 Z M 92.167969 221.066406 " clip-rule="nonzero"/></clipPath></defs><rect x="-37.5" width="450" fill="#ffffff" y="-37.499999" height="449.999989" fill-opacity="1"/><rect x="-37.5" width="450" fill="#ebebeb" y="-37.499999" height="449.999989" fill-opacity="1"/><g fill="#2e2e2e" fill-opacity="1"><g transform="translate(85.436128, 209.891619)"><g><path d="M 14.0625 -23.375 L 14.0625 0 L 7.078125 0 L 7.078125 -53.5625 L 14.0625 -53.5625 L 14.0625 -30.28125 L 40.234375 -30.28125 L 40.234375 -53.5625 L 47.140625 -53.5625 L 47.140625 0 L 40.3125 0 L 40.234375 -23.375 Z M 14.0625 -23.375 "/></g></g></g><g fill="#2e2e2e" fill-opacity="1"><g transform="translate(132.50326, 209.891619)"><g><path d="M 40.734375 -10.375 L 16.203125 -10.375 L 11.4375 0 L 3.875 0 L 28.96875 -54.140625 L 52.75 0 L 45.25 0 Z M 37.765625 -17.203125 L 28.71875 -37.515625 L 19.34375 -17.203125 Z M 37.765625 -17.203125 "/></g></g></g><g fill="#2e2e2e" fill-opacity="1"><g transform="translate(181.8744, 209.891619)"><g><path d="M 42.625 -5.765625 C 40.644531 -3.734375 38.394531 -2.195312 35.875 -1.15625 C 33.351562 -0.0507812 30.664062 0.5 27.8125 0.5 C 25.007812 0.5 22.347656 -0.0507812 19.828125 -1.15625 C 17.253906 -2.195312 15.003906 -3.734375 13.078125 -5.765625 C 11.109375 -7.734375 9.601562 -10.007812 8.5625 -12.59375 C 7.519531 -15.113281 7 -17.800781 7 -20.65625 L 7 -53.5625 L 13.828125 -53.5625 L 13.828125 -20.65625 C 13.828125 -18.726562 14.179688 -16.890625 14.890625 -15.140625 C 15.609375 -13.378906 16.625 -11.84375 17.9375 -10.53125 C 20.84375 -7.726562 24.132812 -6.328125 27.8125 -6.328125 C 29.625 -6.328125 31.40625 -6.710938 33.15625 -7.484375 C 34.851562 -8.203125 36.363281 -9.21875 37.6875 -10.53125 C 39 -11.84375 40.015625 -13.378906 40.734375 -15.140625 C 41.441406 -16.890625 41.796875 -18.726562 41.796875 -20.65625 L 41.796875 -53.5625 L 48.625 -53.5625 L 48.625 -20.65625 C 48.625 -17.800781 48.101562 -15.113281 47.0625 -12.59375 C 46.019531 -10.007812 44.539062 -7.734375 42.625 -5.765625 Z M 42.625 -5.765625 "/></g></g></g><g fill="#2e2e2e" fill-opacity="1"><g transform="translate(230.340396, 209.891619)"><g><path d="M 7 -53.5625 L 13.984375 -53.5625 L 13.984375 -6.828125 L 41.21875 -6.828125 L 41.21875 0 L 7 0 Z M 7 -53.5625 "/></g></g></g><g clip-path="url(#64c5d15a3e)"><path fill="#2e2e2e" d="M 92.167969 221.066406 L 187.492188 221.066406 L 187.492188 226.597656 L 92.167969 226.597656 Z M 92.167969 221.066406 " fill-opacity="1" fill-rule="nonzero"/></g><g fill="#2e2e2e" fill-opacity="1"><g transform="translate(197.848675, 226.17728)"><g><path d="M 2.03125 0 L 2.03125 -4.4375 L 0.234375 -4.4375 L 0.234375 -5.625 L 5.09375 -5.625 L 5.09375 -4.4375 L 3.3125 -4.4375 L 3.3125 0 Z M 2.03125 0 "/></g></g></g><g fill="#2e2e2e" fill-opacity="1"><g transform="translate(205.134563, 226.17728)"><g><path d="M 4.15625 0 L 4.15625 -2.265625 L 1.953125 -2.265625 L 1.953125 0 L 0.671875 0 L 0.671875 -5.625 L 1.953125 -5.625 L 1.953125 -3.46875 L 4.15625 -3.46875 L 4.15625 -5.625 L 5.4375 -5.625 L 5.4375 0 Z M 4.15625 0 "/></g></g></g><g fill="#2e2e2e" fill-opacity="1"><g transform="translate(213.200514, 226.17728)"><g><path d="M 0.671875 0 L 0.671875 -5.625 L 3.078125 -5.625 C 3.503906 -5.625 3.875 -5.546875 4.1875 -5.390625 C 4.507812 -5.242188 4.753906 -5.023438 4.921875 -4.734375 C 5.097656 -4.441406 5.1875 -4.09375 5.1875 -3.6875 C 5.1875 -3.28125 5.09375 -2.925781 4.90625 -2.625 C 4.71875 -2.332031 4.457031 -2.109375 4.125 -1.953125 L 5.28125 0 L 3.8125 0 L 2.796875 -1.75 L 1.953125 -1.75 L 1.953125 0 Z M 1.9375 -2.828125 L 2.90625 -2.828125 C 3.226562 -2.828125 3.472656 -2.898438 3.640625 -3.046875 C 3.804688 -3.203125 3.890625 -3.414062 3.890625 -3.6875 C 3.890625 -3.957031 3.804688 -4.164062 3.640625 -4.3125 C 3.472656 -4.457031 3.226562 -4.53125 2.90625 -4.53125 L 1.9375 -4.53125 Z M 1.9375 -2.828125 "/></g></g></g><g fill="#2e2e2e" fill-opacity="1"><g transform="translate(220.816117, 226.17728)"><g><path d="M 0.671875 0 L 0.671875 -5.625 L 1.953125 -5.625 L 1.953125 0 Z M 0.671875 0 "/></g></g></g><g fill="#2e2e2e" fill-opacity="1"><g transform="translate(225.399948, 226.17728)"><g><path d="M 0.671875 0 L 0.671875 -5.625 L 4.203125 -5.625 L 4.203125 -4.46875 L 1.953125 -4.46875 L 1.953125 -3.0625 L 4 -3.0625 L 4 -1.9375 L 1.953125 -1.9375 L 1.953125 0 Z M 0.671875 0 "/></g></g></g><g fill="#2e2e2e" fill-opacity="1"><g transform="translate(231.913819, 226.17728)"><g><path d="M 2.03125 0 L 2.03125 -4.4375 L 0.234375 -4.4375 L 0.234375 -5.625 L 5.09375 -5.625 L 5.09375 -4.4375 L 3.3125 -4.4375 L 3.3125 0 Z M 2.03125 0 "/></g></g></g><g fill="#2e2e2e" fill-opacity="1"><g transform="translate(239.199706, 226.17728)"><g/></g></g><g fill="#2e2e2e" fill-opacity="1"><g transform="translate(243.043691, 226.17728)"><g><path d="M 2.640625 0.109375 C 2.171875 0.109375 1.765625 0.03125 1.421875 -0.125 C 1.078125 -0.28125 0.8125 -0.5 0.625 -0.78125 C 0.445312 -1.070312 0.359375 -1.410156 0.359375 -1.796875 L 1.609375 -1.796875 C 1.609375 -1.523438 1.703125 -1.3125 1.890625 -1.15625 C 2.078125 -1.007812 2.320312 -0.9375 2.625 -0.9375 C 2.894531 -0.9375 3.109375 -0.988281 3.265625 -1.09375 C 3.421875 -1.195312 3.5 -1.34375 3.5 -1.53125 C 3.5 -1.726562 3.40625 -1.890625 3.21875 -2.015625 C 3.03125 -2.140625 2.738281 -2.242188 2.34375 -2.328125 C 1.6875 -2.472656 1.195312 -2.6875 0.875 -2.96875 C 0.5625 -3.25 0.40625 -3.617188 0.40625 -4.078125 C 0.40625 -4.597656 0.59375 -5.003906 0.96875 -5.296875 C 1.34375 -5.597656 1.851562 -5.75 2.5 -5.75 C 2.945312 -5.75 3.332031 -5.671875 3.65625 -5.515625 C 3.988281 -5.359375 4.242188 -5.140625 4.421875 -4.859375 C 4.597656 -4.585938 4.6875 -4.265625 4.6875 -3.890625 L 3.453125 -3.890625 C 3.453125 -4.140625 3.367188 -4.335938 3.203125 -4.484375 C 3.046875 -4.628906 2.816406 -4.703125 2.515625 -4.703125 C 2.242188 -4.703125 2.03125 -4.648438 1.875 -4.546875 C 1.726562 -4.441406 1.65625 -4.296875 1.65625 -4.109375 C 1.65625 -3.929688 1.738281 -3.785156 1.90625 -3.671875 C 2.082031 -3.554688 2.382812 -3.445312 2.8125 -3.34375 C 3.507812 -3.175781 4.015625 -2.953125 4.328125 -2.671875 C 4.640625 -2.390625 4.796875 -2.023438 4.796875 -1.578125 C 4.796875 -1.046875 4.601562 -0.628906 4.21875 -0.328125 C 3.832031 -0.0351562 3.304688 0.109375 2.640625 0.109375 Z M 2.640625 0.109375 "/></g></g></g><g fill="#2e2e2e" fill-opacity="1"><g transform="translate(250.152654, 226.17728)"><g><path d="M 4.15625 0 L 4.15625 -2.265625 L 1.953125 -2.265625 L 1.953125 0 L 0.671875 0 L 0.671875 -5.625 L 1.953125 -5.625 L 1.953125 -3.46875 L 4.15625 -3.46875 L 4.15625 -5.625 L 5.4375 -5.625 L 5.4375 0 Z M 4.15625 0 "/></g></g></g><g fill="#2e2e2e" fill-opacity="1"><g transform="translate(258.218605, 226.17728)"><g><path d="M 3.34375 0.109375 C 2.757812 0.109375 2.238281 -0.015625 1.78125 -0.265625 C 1.332031 -0.515625 0.976562 -0.859375 0.71875 -1.296875 C 0.46875 -1.734375 0.34375 -2.238281 0.34375 -2.8125 C 0.34375 -3.382812 0.46875 -3.890625 0.71875 -4.328125 C 0.976562 -4.773438 1.332031 -5.125 1.78125 -5.375 C 2.238281 -5.625 2.757812 -5.75 3.34375 -5.75 C 3.9375 -5.75 4.457031 -5.625 4.90625 -5.375 C 5.351562 -5.125 5.707031 -4.773438 5.96875 -4.328125 C 6.226562 -3.890625 6.359375 -3.382812 6.359375 -2.8125 C 6.359375 -2.238281 6.226562 -1.734375 5.96875 -1.296875 C 5.707031 -0.859375 5.351562 -0.515625 4.90625 -0.265625 C 4.457031 -0.015625 3.9375 0.109375 3.34375 0.109375 Z M 1.65625 -2.8125 C 1.65625 -2.476562 1.722656 -2.179688 1.859375 -1.921875 C 2.003906 -1.660156 2.203125 -1.457031 2.453125 -1.3125 C 2.710938 -1.175781 3.007812 -1.109375 3.34375 -1.109375 C 3.6875 -1.109375 3.984375 -1.175781 4.234375 -1.3125 C 4.492188 -1.457031 4.691406 -1.660156 4.828125 -1.921875 C 4.972656 -2.179688 5.046875 -2.476562 5.046875 -2.8125 C 5.046875 -3.15625 4.972656 -3.453125 4.828125 -3.703125 C 4.691406 -3.960938 4.492188 -4.164062 4.234375 -4.3125 C 3.984375 -4.457031 3.6875 -4.53125 3.34375 -4.53125 C 3.007812 -4.53125 2.710938 -4.457031 2.453125 -4.3125 C 2.203125 -4.164062 2.003906 -3.960938 1.859375 -3.703125 C 1.722656 -3.453125 1.65625 -3.15625 1.65625 -2.8125 Z M 1.65625 -2.8125 "/></g></g></g><g fill="#2e2e2e" fill-opacity="1"><g transform="translate(266.8716, 226.17728)"><g><path d="M 0.671875 0 L 0.671875 -5.625 L 2.875 -5.625 C 3.332031 -5.625 3.726562 -5.539062 4.0625 -5.375 C 4.394531 -5.21875 4.65625 -4.984375 4.84375 -4.671875 C 5.03125 -4.367188 5.125 -4.007812 5.125 -3.59375 C 5.125 -3.1875 5.03125 -2.828125 4.84375 -2.515625 C 4.65625 -2.210938 4.394531 -1.976562 4.0625 -1.8125 C 3.726562 -1.644531 3.332031 -1.5625 2.875 -1.5625 L 1.953125 -1.5625 L 1.953125 0 Z M 1.953125 -2.671875 L 2.78125 -2.671875 C 3.113281 -2.671875 3.367188 -2.75 3.546875 -2.90625 C 3.722656 -3.0625 3.8125 -3.289062 3.8125 -3.59375 C 3.8125 -3.882812 3.722656 -4.109375 3.546875 -4.265625 C 3.367188 -4.429688 3.113281 -4.515625 2.78125 -4.515625 L 1.953125 -4.515625 Z M 1.953125 -2.671875 "/></g></g></g></svg>